<svg xmlns="http://www.w3.org/2000/svg" viewBox="0 0 256 256" width="100%" height="100%" stroke="currentColor" fill="none"><circle cx="72.01" cy="73.01" r="42.72" fill="none" stroke-linecap="round" stroke-linejoin="round" stroke-width="5.86"></circle><path fill="none" stroke-linecap="round" stroke-linejoin="round" stroke-width="5.86" d="M72.01 69.82a8.8 8.8 0 1 1 0-17.6 8.8 8.8 0 0 1 0 17.6M56.32 93.8c0-7.8 7.02-14.13 15.69-14.13 8.66 0 15.69 6.33 15.69 14.13"></path><circle cx="72.01" cy="183.85" r="42.72" fill="none" stroke-linecap="round" stroke-linejoin="round" stroke-width="5.86"></circle><path fill="none" stroke-linecap="round" stroke-linejoin="round" stroke-width="5.86" d="M72.01 180.66a8.8 8.8 0 1 1 0-17.6 8.8 8.8 0 0 1 0 17.6M56.32 204.64c0-7.8 7.02-14.13 15.69-14.13 8.66 0 15.69 6.33 15.69 14.13"></path><path fill="none" stroke-linecap="round" stroke-linejoin="round" stroke-width="9" d="m145.52 67.95 23.85 23.84 43.99-44"></path><path fill="none" stroke-linecap="round" stroke-linejoin="round" stroke-width="7.1" d="M141.85 172.14h73.51M141.85 193.14h73.51"></path></svg>